<?xml version="1.0"?>
<svg xmlns="http://www.w3.org/2000/svg" height="512px" viewBox="0 0 512.00019 512.00019" width="512px" class=""><g><path d="m366.960938 123.824219 105.644531-105.640625c-41.832031-29.941406-104.632813-22.652344-147.265625 19.984375-15.4375 15.4375-34.710938 42.148437-47.121094 68.40625 30.109375-7.640625 62.875-2.03125 88.742188 17.25zm0 0" data-original="#000000" class="active-path" data-old_color="#000000" fill="#FFFFFF"/><path d="m405.425781 233.78125c26.257813-12.410156 52.96875-31.683594 68.40625-47.121094 42.636719-42.636718 49.925781-105.433594 19.988281-147.265625l-105.644531 105.644531c19.28125 25.863282 24.890625 58.632813 17.25 88.742188zm0 0" data-original="#000000" class="active-path" data-old_color="#000000" fill="#FFFFFF"/><path d="m357.160156 260.90625c29.238282-29.242188 29.238282-76.824219 0-106.066406-29.242187-29.238282-76.828125-29.238282-106.066406 0-29.242188 29.242187-29.242188 76.824218 0 106.066406 29.238281 29.242188 76.824219 29.242188 106.066406 0zm-63.640625-42.425781c-5.859375-5.855469-5.859375-15.355469 0-21.210938 5.859375-5.859375 15.355469-5.859375 21.210938 0 5.859375 5.855469 5.859375 15.351563 0 21.210938-5.855469 5.855469-15.355469 5.855469-21.210938 0zm0 0" data-original="#000000" class="active-path" data-old_color="#000000" fill="#FFFFFF"/><path d="m211.078125 160.300781c-36.300781 4.34375-70.820313 20.519531-97.269531 46.972657l-.601563.601562 63.640625 63.640625.601563-.601563c9.085937-9.089843 20.050781-15.417968 31.828125-18.898437-13.523438-29.15625-12.851563-62.976563 1.800781-91.714844zm0 0" data-original="#000000" class="active-path" data-old_color="#000000" fill="#FFFFFF"/><path d="m13.160156 308c-17.546875 17.546875-17.546875 46.09375 0 63.640625s46.09375 17.546875 63.640625 0l78.832031-78.914063-63.640624-63.640624zm0 0" data-original="#000000" class="active-path" data-old_color="#000000" fill="#FFFFFF"/><path d="m140.359375 435.199219c-17.546875 17.546875-17.546875 46.09375 0 63.640625s46.09375 17.546875 63.640625 0l78.914062-78.832032-63.640624-63.640624zm0 0" data-original="#000000" class="active-path" data-old_color="#000000" fill="#FFFFFF"/><path d="m351.699219 300.917969c-28.742188 14.652343-62.558594 15.328125-91.714844 1.808593-3.480469 11.773438-9.808594 22.738282-18.898437 31.824219l-.601563.601563 63.640625 63.640625.601562-.601563c26.449219-26.449218 42.625-60.96875 46.972657-97.273437zm0 0" data-original="#000000" class="active-path" data-old_color="#000000" fill="#FFFFFF"/></g> </svg>
